<svg width="46" height="41" viewBox="0 0 46 41" fill="none" xmlns="http://www.w3.org/2000/svg">
<g clip-path="url(#clip0)">
<path d="M45.9999 20.5002C45.9999 27.2684 39.8666 32.8002 32.1999 32.8002C24.6062 32.8002 18.3999 27.2684 18.3999 20.5002C18.3999 13.7319 24.5332 8.2002 32.1269 8.2002C39.8666 8.2002 45.9999 13.7319 45.9999 20.5002Z" fill="#FFB600"/>
<path d="M32.1999 8.2002C39.7935 8.2002 45.9999 13.7319 45.9999 20.5002C45.9999 27.2684 39.8666 32.8002 32.1999 32.8002C24.6062 32.8002 18.3999 27.2684 18.3999 20.5002" fill="#F7981D"/>
<path d="M32.2002 8.2002C39.7938 8.2002 46.0002 13.7319 46.0002 20.5002C46.0002 27.2684 39.8669 32.8002 32.2002 32.8002" fill="#FF8500"/>
<path d="M13.654 8.2002C6.13333 8.26527 0 13.7319 0 20.5002C0 27.2684 6.13333 32.8002 13.8 32.8002C17.3778 32.8002 20.5905 31.5637 23.073 29.6113C23.5841 29.2208 24.0222 28.7653 24.4603 28.3097H21.6127C21.2476 27.9192 20.8825 27.4637 20.5905 27.0732H25.4825C25.7746 26.6827 26.0667 26.2272 26.2857 25.7716H19.7873C19.5683 25.3811 19.3492 24.9256 19.2032 24.47H26.7968C27.2349 23.2335 27.527 21.9319 27.527 20.5653C27.527 19.6542 27.381 18.8081 27.2349 17.9621H18.7651C18.8381 17.5065 18.9841 17.1161 19.1302 16.6605H26.7238C26.5778 16.205 26.3587 15.7494 26.1397 15.3589H19.7143C19.9333 14.9034 20.2254 14.5129 20.5175 14.0573H25.4095C25.1175 13.6018 24.7524 13.1462 24.3143 12.7558H21.6127C22.0508 12.3002 22.4889 11.9097 23 11.5192C20.5905 9.50178 17.3048 8.33035 13.727 8.33035C13.727 8.2002 13.727 8.2002 13.654 8.2002Z" fill="#FF5050"/>
<path d="M0 20.4999C0 27.2682 6.13333 32.7999 13.8 32.7999C17.3778 32.7999 20.5905 31.5634 23.073 29.611C23.5841 29.2205 24.0222 28.765 24.4603 28.3094H21.6127C21.2476 27.919 20.8825 27.4634 20.5905 27.0729H25.4825C25.7746 26.6825 26.0667 26.2269 26.2857 25.7713H19.7873C19.5683 25.3809 19.3492 24.9253 19.2032 24.4698H26.7968C27.2349 23.2332 27.527 21.9317 27.527 20.565C27.527 19.6539 27.381 18.8079 27.2349 17.9618H18.7651C18.8381 17.5063 18.9841 17.1158 19.1302 16.6602H26.7238C26.5778 16.2047 26.3587 15.7491 26.1397 15.3586H19.7143C19.9333 14.9031 20.2254 14.5126 20.5175 14.0571H25.4095C25.1175 13.6015 24.7524 13.1459 24.3143 12.7555H21.6127C22.0508 12.2999 22.4889 11.9094 23 11.519C20.5905 9.50151 17.3048 8.33008 13.727 8.33008H13.654" fill="#E52836"/>
<path d="M13.7998 32.7999C17.3776 32.7999 20.5903 31.5634 23.0729 29.611C23.584 29.2205 24.0221 28.765 24.4602 28.3094H21.6125C21.2475 27.919 20.8824 27.4634 20.5903 27.0729H25.4824C25.7744 26.6825 26.0665 26.2269 26.2856 25.7713H19.7871C19.5681 25.3809 19.349 24.9253 19.203 24.4698H26.7967C27.2348 23.2332 27.5268 21.9317 27.5268 20.565C27.5268 19.6539 27.3808 18.8079 27.2348 17.9618H18.7649C18.8379 17.5063 18.984 17.1158 19.13 16.6602H26.7236C26.5776 16.2047 26.3586 15.7491 26.1395 15.3586H19.7141C19.9332 14.9031 20.2252 14.5126 20.5173 14.0571H25.4094C25.1173 13.6015 24.7522 13.1459 24.3141 12.7555H21.6125C22.0506 12.2999 22.4887 11.9094 22.9998 11.519C20.5903 9.50151 17.3046 8.33008 13.7268 8.33008H13.6538" fill="#CB2026"/>
<path d="M18.6922 23.6235L18.9112 22.5171C18.8382 22.5171 18.6922 22.5822 18.5461 22.5822C18.035 22.5822 17.962 22.3219 18.035 22.1917L18.4731 19.9139H19.2763L19.4953 18.6774H18.7652L18.9112 17.8965H17.4509C17.4509 17.8965 16.5747 22.1917 16.5747 22.7124C16.5747 23.4933 17.0858 23.8187 17.743 23.8187C18.1811 23.8187 18.5461 23.6885 18.6922 23.6235Z" fill="white"/>
<path d="M19.2031 21.5413C19.2031 23.3635 20.5904 23.8191 21.7587 23.8191C22.8539 23.8191 23.292 23.6238 23.292 23.6238L23.5841 22.3873C23.5841 22.3873 22.7809 22.7127 22.0507 22.7127C20.4444 22.7127 20.7365 21.6715 20.7365 21.6715H23.7301C23.7301 21.6715 23.9492 20.8254 23.9492 20.5C23.9492 19.654 23.438 18.6127 21.8317 18.6127C20.2984 18.4826 19.2031 19.9143 19.2031 21.5413ZM21.7587 19.654C22.5619 19.654 22.4158 20.5 22.4158 20.5651H20.8095C20.8095 20.5 20.9555 19.654 21.7587 19.654Z" fill="white"/>
<path d="M31.032 23.6232L31.3241 22.1915C31.3241 22.1915 30.5939 22.5169 30.0828 22.5169C29.0606 22.5169 28.6225 21.801 28.6225 21.0201C28.6225 19.4582 29.4987 18.6121 30.5209 18.6121C31.251 18.6121 31.8352 19.0026 31.8352 19.0026L32.0542 17.6359C32.0542 17.6359 31.178 17.3105 30.3748 17.3105C28.6955 17.3105 27.0161 18.6121 27.0161 21.0851C27.0161 22.7121 27.8923 23.8185 29.6447 23.8185C30.2288 23.8185 31.032 23.6232 31.032 23.6232Z" fill="white"/>
<path d="M10.6603 18.4814C9.63812 18.4814 8.90796 18.7418 8.90796 18.7418L8.68892 19.8481C8.68892 19.8481 9.34606 19.5878 10.2953 19.5878C10.8064 19.5878 11.2445 19.6529 11.2445 20.0433C11.2445 20.3037 11.1715 20.3687 11.1715 20.3687C11.1715 20.3687 10.7334 20.3687 10.5143 20.3687C9.27304 20.3687 7.88574 20.8243 7.88574 22.3211C7.88574 23.4925 8.76193 23.7529 9.27304 23.7529C10.2953 23.7529 10.7334 23.1672 10.8064 23.1672L10.7334 23.6878H12.0476L12.6318 20.1084C12.6318 18.5465 11.1715 18.4814 10.6603 18.4814ZM10.9524 21.41C10.9524 21.6053 10.8064 22.6465 9.93019 22.6465C9.49209 22.6465 9.34606 22.3211 9.34606 22.1259C9.34606 21.8005 9.56511 21.3449 10.6603 21.3449C10.8794 21.41 10.9524 21.41 10.9524 21.41Z" fill="white"/>
<path d="M14.0192 23.7535C14.3843 23.7535 16.2097 23.8186 16.2097 22.0614C16.2097 20.4345 14.4573 20.7598 14.4573 20.1091C14.4573 19.7837 14.7494 19.6535 15.2605 19.6535C15.4795 19.6535 16.2827 19.7186 16.2827 19.7186L16.5017 18.5472C16.5017 18.5472 15.9906 18.417 15.1144 18.417C14.0192 18.417 12.924 18.8075 12.924 20.1091C12.924 21.6059 14.7494 21.4757 14.7494 22.0614C14.7494 22.4519 14.2383 22.517 13.8732 22.517C13.216 22.517 12.5589 22.3218 12.5589 22.3218L12.3398 23.4932C12.4129 23.6233 12.7779 23.7535 14.0192 23.7535Z" fill="white"/>
<path d="M43.1526 17.4404L42.8606 19.1976C42.8606 19.1976 42.2764 18.5468 41.4733 18.5468C40.159 18.5468 38.9907 19.9785 38.9907 21.6706C38.9907 22.7119 39.5748 23.8182 40.8161 23.8182C41.6923 23.8182 42.2034 23.2976 42.2034 23.2976L42.1304 23.7531H43.5907L44.686 17.5055L43.1526 17.4404ZM42.4955 20.8896C42.4955 21.6055 42.1304 22.5166 41.3272 22.5166C40.8161 22.5166 40.5241 22.1261 40.5241 21.4754C40.5241 20.4341 41.0352 19.7833 41.6923 19.7833C42.2034 19.7833 42.4955 20.1087 42.4955 20.8896Z" fill="white"/>
<path d="M2.70175 23.6881L3.57795 19.0023L3.72398 23.6881H4.7462L6.64461 19.0023L5.84144 23.6881H7.37477L8.54302 17.4404H6.1335L4.67318 21.2801L4.60017 17.4404H2.48271L1.31445 23.6881H2.70175Z" fill="white"/>
<path d="M25.3368 23.6885C25.7749 21.5409 25.8479 19.7837 26.8702 20.1091C27.0162 19.2631 27.2352 18.9377 27.3813 18.6123C27.3813 18.6123 27.3082 18.6123 27.0892 18.6123C26.4321 18.6123 25.9209 19.3933 25.9209 19.3933L26.067 18.6774H24.6797L23.7305 23.7536H25.3368V23.6885Z" fill="white"/>
<path d="M34.3908 18.4814C33.3686 18.4814 32.6384 18.7418 32.6384 18.7418L32.4194 19.8481C32.4194 19.8481 33.0765 19.5878 34.0257 19.5878C34.5368 19.5878 34.9749 19.6529 34.9749 20.0433C34.9749 20.3037 34.9019 20.3687 34.9019 20.3687C34.9019 20.3687 34.4638 20.3687 34.2448 20.3687C33.0035 20.3687 31.6162 20.8243 31.6162 22.3211C31.6162 23.4925 32.4924 23.7529 33.0035 23.7529C34.0257 23.7529 34.4638 23.1672 34.5368 23.1672L34.4638 23.6878H35.7781L36.3622 20.1084C36.4353 18.5465 34.9019 18.4814 34.3908 18.4814ZM34.7559 21.41C34.7559 21.6053 34.6099 22.6465 33.7337 22.6465C33.2956 22.6465 33.1495 22.3211 33.1495 22.1259C33.1495 21.8005 33.3686 21.3449 34.4638 21.3449C34.6829 21.41 34.6829 21.41 34.7559 21.41Z" fill="white"/>
<path d="M37.6034 23.6885C38.0415 21.5409 38.1145 19.7837 39.1368 20.1091C39.2828 19.2631 39.5018 18.9377 39.6479 18.6123C39.6479 18.6123 39.5749 18.6123 39.3558 18.6123C38.6987 18.6123 38.1875 19.3933 38.1875 19.3933L38.3336 18.6774H36.9463L35.9971 23.7536H37.6034V23.6885Z" fill="white"/>
<path d="M16.4287 22.7124C16.4287 23.4933 16.9398 23.8187 17.597 23.8187C18.1081 23.8187 18.5462 23.6885 18.6922 23.6235L18.9112 22.5171C18.8382 22.5171 18.6922 22.5822 18.5462 22.5822C18.0351 22.5822 17.962 22.3219 18.0351 22.1917L18.4732 19.9139H19.2763L19.4954 18.6774H18.7652L18.9112 17.8965" fill="#DCE5E5"/>
<path d="M19.9336 21.5413C19.9336 23.3635 20.5907 23.8191 21.759 23.8191C22.8542 23.8191 23.2923 23.6238 23.2923 23.6238L23.5844 22.3873C23.5844 22.3873 22.7812 22.7127 22.0511 22.7127C20.4447 22.7127 20.7368 21.6715 20.7368 21.6715H23.7304C23.7304 21.6715 23.9495 20.8254 23.9495 20.5C23.9495 19.654 23.4384 18.6127 21.832 18.6127C20.2987 18.4826 19.9336 19.9143 19.9336 21.5413ZM21.759 19.654C22.5622 19.654 22.7082 20.5 22.7082 20.5651H20.8098C20.8098 20.5 20.9558 19.654 21.759 19.654Z" fill="#DCE5E5"/>
<path d="M31.0318 23.6232L31.3239 22.1915C31.3239 22.1915 30.5937 22.5169 30.0826 22.5169C29.0604 22.5169 28.6223 21.801 28.6223 21.0201C28.6223 19.4582 29.4985 18.6121 30.5207 18.6121C31.2509 18.6121 31.835 19.0026 31.835 19.0026L32.054 17.6359C32.054 17.6359 31.1778 17.3105 30.3747 17.3105C28.6953 17.3105 27.7461 18.6121 27.7461 21.0851C27.7461 22.7121 27.8921 23.8185 29.6445 23.8185C30.2286 23.8185 31.0318 23.6232 31.0318 23.6232Z" fill="#DCE5E5"/>
<path d="M8.68892 19.9139C8.68892 19.9139 9.34606 19.6536 10.2953 19.6536C10.8064 19.6536 11.2445 19.7187 11.2445 20.1091C11.2445 20.3694 11.1715 20.4345 11.1715 20.4345C11.1715 20.4345 10.7334 20.4345 10.5143 20.4345C9.27304 20.4345 7.88574 20.8901 7.88574 22.3869C7.88574 23.5583 8.76193 23.8186 9.27304 23.8186C10.2953 23.8186 10.7334 23.2329 10.8064 23.2329L10.7334 23.7536H12.0476L12.6318 20.1742C12.6318 18.6774 11.1715 18.6123 10.5873 18.6123L8.68892 19.9139ZM11.6826 21.4107C11.6826 21.606 10.8064 22.6472 9.93019 22.6472C9.49209 22.6472 9.34606 22.3218 9.34606 22.1266C9.34606 21.8012 9.56511 21.3456 10.6603 21.3456C10.8794 21.4107 11.6826 21.4107 11.6826 21.4107Z" fill="#DCE5E5"/>
<path d="M12.4126 23.6233C12.4126 23.6233 12.8507 23.7535 14.092 23.7535C14.457 23.7535 16.2824 23.8186 16.2824 22.0614C16.2824 20.4345 14.5301 20.7598 14.5301 20.1091C14.5301 19.7837 14.8221 19.6535 15.3332 19.6535C15.5523 19.6535 16.3555 19.7186 16.3555 19.7186L16.5745 18.5472C16.5745 18.5472 16.0634 18.417 15.1872 18.417C14.092 18.417 13.7269 18.8075 13.7269 20.1091C13.7269 21.6059 14.8221 21.4757 14.8221 22.0614C14.8221 22.4519 14.311 22.517 13.9459 22.517" fill="#DCE5E5"/>
<path d="M42.8603 19.1979C42.8603 19.1979 42.2762 18.5471 41.473 18.5471C40.1587 18.5471 39.7206 19.9789 39.7206 21.6709C39.7206 22.7122 39.5746 23.8185 40.8159 23.8185C41.6921 23.8185 42.2032 23.2979 42.2032 23.2979L42.1302 23.7535H43.5905L44.6857 17.5059L42.8603 19.1979ZM42.7873 20.89C42.7873 21.6059 42.1302 22.517 41.327 22.517C40.8159 22.517 40.5238 22.1265 40.5238 21.4757C40.5238 20.4344 41.0349 19.7836 41.6921 19.7836C42.2032 19.7836 42.7873 20.109 42.7873 20.89Z" fill="#DCE5E5"/>
<path d="M2.70175 23.6881L3.57795 19.0023L3.72398 23.6881H4.7462L6.64461 19.0023L5.84144 23.6881H7.37477L8.54302 17.4404H6.71763L4.67318 21.2801L4.60017 17.4404H3.79699L1.31445 23.6881H2.70175Z" fill="#DCE5E5"/>
<path d="M23.8032 23.6885H25.3366C25.7747 21.5409 25.8477 19.7837 26.8699 20.1091C27.0159 19.2631 27.235 18.9377 27.381 18.6123C27.381 18.6123 27.308 18.6123 27.0889 18.6123C26.4318 18.6123 25.9207 19.3933 25.9207 19.3933L26.0667 18.6774" fill="#DCE5E5"/>
<path d="M32.4194 19.9139C32.4194 19.9139 33.0765 19.6536 34.0257 19.6536C34.5368 19.6536 34.9749 19.7187 34.9749 20.1091C34.9749 20.3694 34.9019 20.4345 34.9019 20.4345C34.9019 20.4345 34.4638 20.4345 34.2448 20.4345C33.0035 20.4345 31.6162 20.8901 31.6162 22.3869C31.6162 23.5583 32.4924 23.8186 33.0035 23.8186C34.0257 23.8186 34.4638 23.2329 34.5368 23.2329L34.4638 23.7536H35.7781L36.3622 20.1742C36.3622 18.6774 34.9019 18.6123 34.3178 18.6123L32.4194 19.9139ZM35.413 21.4107C35.413 21.606 34.5368 22.6472 33.6607 22.6472C33.2226 22.6472 33.0765 22.3218 33.0765 22.1266C33.0765 21.8012 33.2956 21.3456 34.3908 21.3456C34.6829 21.4107 35.413 21.4107 35.413 21.4107Z" fill="#DCE5E5"/>
<path d="M36.0703 23.6885H37.6036C38.0417 21.5409 38.1148 19.7837 39.137 20.1091C39.283 19.2631 39.5021 18.9377 39.6481 18.6123C39.6481 18.6123 39.5751 18.6123 39.356 18.6123C38.6989 18.6123 38.1878 19.3933 38.1878 19.3933L38.3338 18.6774" fill="#DCE5E5"/>
</g>
<defs>
<clipPath id="clip0">
<rect width="46" height="41" fill="white"/>
</clipPath>
</defs>
</svg>
