<svg width="64" height="51" viewBox="0 0 64 51" fill="none" xmlns="http://www.w3.org/2000/svg">
<path d="M23.4668 32.8263L26.7176 18.2549H31.797L28.6477 32.8263H23.4668Z" fill="#3C58BF"/>
<path d="M23.4668 32.8263L27.6319 18.2549H31.797L28.6477 32.8263H23.4668Z" fill="#293688"/>
<path d="M47.035 18.4171C46.0192 18.0933 44.3938 17.7695 42.362 17.7695C37.2827 17.7695 33.6255 19.7933 33.6255 22.7076C33.6255 24.8933 36.1652 26.0267 38.1969 26.7552C40.2287 27.4838 40.8382 27.9695 40.8382 28.6171C40.8382 29.5886 39.2128 30.0743 37.7906 30.0743C35.7589 30.0743 34.6414 29.8314 32.9144 29.2648L32.2033 29.0219L31.4922 32.341C32.7112 32.7457 34.9462 33.1505 37.2827 33.1505C42.6668 33.1505 46.2223 31.1267 46.2223 28.0505C46.2223 26.3505 44.9017 25.0552 41.8541 24.0029C40.0255 23.2743 38.9081 22.8695 38.9081 22.141C38.9081 21.4933 39.8223 20.8457 41.8541 20.8457C43.5811 20.8457 44.8001 21.0886 45.7144 21.4124L46.2223 21.5743L47.035 18.4171Z" fill="#3C58BF"/>
<path d="M47.035 18.4171C46.0192 18.0933 44.3938 17.7695 42.362 17.7695C37.2827 17.7695 34.5398 19.7933 34.5398 22.7076C34.5398 24.8933 36.1652 26.0267 38.1969 26.7552C40.2287 27.4838 40.8382 27.9695 40.8382 28.6171C40.8382 29.5886 39.2128 30.0743 37.7906 30.0743C35.7589 30.0743 34.6414 29.8314 32.9144 29.2648L32.2033 29.0219L31.4922 32.341C32.7112 32.7457 34.9462 33.1505 37.2827 33.1505C42.6668 33.1505 46.2223 31.1267 46.2223 28.0505C46.2223 26.3505 44.9017 25.0552 41.8541 24.0029C40.0255 23.2743 38.9081 22.8695 38.9081 22.141C38.9081 21.4933 39.8223 20.8457 41.8541 20.8457C43.5811 20.8457 44.8001 21.0886 45.7144 21.4124L46.2223 21.5743L47.035 18.4171Z" fill="#293688"/>
<path d="M55.7716 18.2549C54.5525 18.2549 53.6382 18.3358 53.1303 19.3073L45.5112 32.8263H50.9969L52.0128 30.3977H58.5144L59.1239 32.8263H64.0001L59.7335 18.2549H55.7716ZM53.435 27.9692C53.7398 27.2406 55.4668 23.6787 55.4668 23.6787C55.4668 23.6787 55.8731 22.7882 56.1779 22.2216L56.4827 23.5977C56.4827 23.5977 57.4985 27.2406 57.7017 28.0501H53.435V27.9692Z" fill="#3C58BF"/>
<path d="M56.9906 18.2549C55.7715 18.2549 54.8573 18.3358 54.3493 19.3073L45.5112 32.8263H50.9969L52.0128 30.3977H58.5144L59.1239 32.8263H64.0001L59.7335 18.2549H56.9906ZM53.435 27.9692C53.8414 27.1596 55.4668 23.6787 55.4668 23.6787C55.4668 23.6787 55.8731 22.7882 56.1779 22.2216L56.4827 23.5977C56.4827 23.5977 57.4985 27.2406 57.7017 28.0501H53.435V27.9692Z" fill="#293688"/>
<path d="M14.1205 28.455L13.6126 26.3502C12.6983 23.9216 9.75226 21.2502 6.50146 19.955L11.0729 32.9074H16.5586L24.7872 18.3359H19.3015L14.1205 28.455Z" fill="#3C58BF"/>
<path d="M14.1205 28.455L13.6126 26.3502C12.6983 23.9216 9.75226 21.2502 6.50146 19.955L11.0729 32.9074H16.5586L24.7872 18.3359H20.3173L14.1205 28.455Z" fill="#293688"/>
<path d="M0 18.2549L0.914286 18.4168C7.41587 19.6311 11.8857 22.7073 13.6127 26.3501L11.7841 19.4692C11.4794 18.4977 10.5651 18.2549 9.44762 18.2549H0Z" fill="#FFBC00"/>
<path d="M0 18.2549C6.50159 19.4692 11.8857 22.6263 13.6127 26.2692L11.8857 20.5216C11.581 19.5501 10.5651 18.9835 9.44762 18.9835L0 18.2549Z" fill="#F7981D"/>
<path d="M0 18.2549C6.50159 19.4692 11.8857 22.6263 13.6127 26.2692L12.3937 23.112C12.0889 22.1406 11.6825 21.1692 10.2603 20.7644L0 18.2549Z" fill="#ED7C00"/>
<path d="M19.1999 27.9683L15.7459 25.2159L14.1205 28.2921L13.7141 26.2683C12.7999 23.8397 9.85382 21.1683 6.60303 19.873L11.1745 32.8254H16.6602L19.1999 27.9683Z" fill="#051244"/>
<path d="M28.6473 32.8256L24.279 29.2637L23.4663 32.8256H28.6473Z" fill="#051244"/>
<path d="M40.3298 27.8057C40.7361 28.1295 40.9393 28.3723 40.8377 28.6961C40.8377 29.6676 39.2123 30.1533 37.7901 30.1533C35.7584 30.1533 34.6409 29.9104 32.9139 29.3438L32.2028 29.1009L31.4917 32.42C32.7107 32.8247 34.9457 33.2295 37.2822 33.2295C40.533 33.2295 43.1742 32.5009 44.698 31.2057L40.3298 27.8057Z" fill="#051244"/>
<path d="M46.2222 32.8255H50.9968L52.0126 30.3969H58.5142L59.1238 32.8255H64L62.273 26.9159L56.1777 22.2207L56.4825 23.5159C56.4825 23.5159 57.4984 27.1588 57.7015 27.9683H53.4349C53.8412 27.1588 55.4666 23.6778 55.4666 23.6778C55.4666 23.6778 55.873 22.7874 56.1777 22.2207" fill="#051244"/>
</svg>
